<svg xmlns="http://www.w3.org/2000/svg" viewBox="0 0 700 900" role="img" aria-label="Plus female model silhouette">
  <defs>
    <linearGradient id="bg4" x1="0" y1="0" x2="1" y2="1">
      <stop offset="0%" stop-color="#ecd8d1"/>
      <stop offset="100%" stop-color="#f8efea"/>
    </linearGradient>
  </defs>
  <rect width="700" height="900" fill="url(#bg4)"/>
  <ellipse cx="350" cy="140" rx="72" ry="78" fill="#b99386"/>
  <path d="M220 260c24-60 68-96 130-96s106 36 130 96l27 152c14 77 17 149 12 208l-11 162H192l-11-162c-5-59-2-131 12-208z" fill="#a87666"/>
  <path d="M245 326c38 18 172 18 210 0l6 64c-47 26-175 26-222 0z" fill="#8f6153" opacity="0.76"/>
  <rect x="192" y="782" width="316" height="86" fill="#f6eae5"/>
</svg>
