<svg xmlns="http://www.w3.org/2000/svg" viewBox="0 0 700 900" role="img" aria-label="Classic female model silhouette">
  <defs>
    <linearGradient id="bg1" x1="0" y1="0" x2="1" y2="1">
      <stop offset="0%" stop-color="#efe0d1"/>
      <stop offset="100%" stop-color="#f9f3ec"/>
    </linearGradient>
  </defs>
  <rect width="700" height="900" fill="url(#bg1)"/>
  <ellipse cx="350" cy="140" rx="70" ry="78" fill="#c8b3a3"/>
  <path d="M258 258c20-55 65-89 92-89s72 34 92 89l42 146c16 58 26 142 22 226l-5 142H198l-5-142c-4-84 6-168 22-226z" fill="#b49580"/>
  <path d="M286 300c29 25 98 25 127 0l12 72c-50 22-101 22-151 0z" fill="#9b7b66" opacity="0.7"/>
  <rect x="198" y="772" width="303" height="96" fill="#f3ece4"/>
</svg>
